{"title":"Thor.Tales.of.Asgard.2011.BRRip.x264.Feel-Free","uid":6398005,"size":937967801,"categoryP":"video","categoryS":"movies","magnet":"?xt=urn:btih:67a58027105bfb78e21eb385e9a68e90c0ff4739&amp;dn=Thor.Tales.of.Asgard.2011.BRRip.x264.Feel-Free&amp;tr=udp%3A%2F%2Ftracker.openbittorrent.com%3A80&amp;tr=udp%3A%2F%2Fopen.demonii.com%3A1337&amp;tr=udp%3A%2F%2Ftracker.coppersurfer.tk%3A6969&amp;tr=udp%3A%2F%2Fexodus.desync.com%3A6969","seeders":1,"leechers":0,"uploader":".BONE.","files":11,"time":1305577782,"description":"\nGenre:Animation | Action | Adventure\nLanguage:English\n &lt;a href=&quot;\nhttp://www.imdb.com/title/tt1667903/&quot; rel=&quot;nofollow&quot; target=&quot;_NEW&quot;&gt;\nhttp://www.imdb.com/title/tt1667903/&lt;/a&gt;\n\nSource:BluRay.1080p.DTS.x264-CHD\nSubtitles:Romana/English\n\n\nFormat : AVI\nFormat/Info : Audio Video Interleave\nFile size : 893 MiB\nDuration : 1h 16mn\nOverall bit rate : 1 623 Kbps\n\nVideo\nID : 0\nFormat : MPEG-4 Visual\nFormat profile : Advanced Simple@L5\nFormat settings, BVOP : Yes\nFormat settings, QPel : No\nFormat settings, GMC : No warppoints\nFormat settings, Matrix : Default (H.263)\nCodec ID : XVID\nCodec ID/Hint : XviD\nDuration : 1h 16mn\nBit rate : 1 166 Kbps\nWidth : 640 pixels\nHeight : 360 pixels\nDisplay aspect ratio : 16:9\nFrame rate : 23.976 fps\nColor space : YUV\nChroma subsampling : 4:2:0\nBit depth : 8 bits\nScan type : Progressive\nBits/(Pixel*Frame) : 0.211\nStream size : 642 MiB (72%)\nWriting library : XviD 1.2.1 (UTC 2008-12-04)\n\nAudio\nID : 1\nFormat : AC-3\nFormat/Info : Audio Coding 3\nMode extension : CM (complete main)\nCodec ID : 2000\nDuration : 1h 16mn\nBit rate mode : Constant\nBit rate : 448 Kbps\nChannel(s) : 6 channels\nChannel positions : Front: L C R, Side: L R, LFE\nSampling rate : 48.0 KHz\nBit depth : 16 bits\nStream size : 247 MiB (28%)\nAlignment : Aligned on interleaves\nInterleave, duration : 42 ms (1.00 video frame)\nInterleave, preload duration : 512 ms\n\n\nPlot:\nThe young Norse god Thor embarks on a quest with his brother Loki to find and recover a legendary sword.\n &lt;a href=&quot;\nhttp://www.pix2links.com/images/17329912225916776968.png&quot; rel=&quot;nofollow&quot; target=&quot;_NEW&quot;&gt;\nhttp://www.pix2links.com/images/17329912225916776968.png&lt;/a&gt;\n &lt;a href=&quot;\nhttp://www.pix2links.com/images/71769054363899815241.png&quot; rel=&quot;nofollow&quot; target=&quot;_NEW&quot;&gt;\nhttp://www.pix2links.com/images/71769054363899815241.png&lt;/a&gt;\n &lt;a href=&quot;\nhttp://www.pix2links.com/images/99040357918990711475.png&quot; rel=&quot;nofollow&quot; target=&quot;_NEW&quot;&gt;\nhttp://www.pix2links.com/images/99040357918990711475.png&lt;/a&gt;\n &lt;a href=&quot;\nhttp://www.pix2links.com/images/27070055862700980856.png&quot; rel=&quot;nofollow&quot; target=&quot;_NEW&quot;&gt;\nhttp://www.pix2links.com/images/27070055862700980856.png&lt;/a&gt;","torrent":{"xt":"urn:btih:67a58027105bfb78e21eb385e9a68e90c0ff4739","amp;dn":"Thor.Tales.of.Asgard.2011.BRRip.x264.Feel-Free","amp;tr":["udp%3A%2F%2Ftracker.openbittorrent.com%3A80","udp%3A%2F%2Fopen.demonii.com%3A1337","udp%3A%2F%2Ftracker.coppersurfer.tk%3A6969","udp%3A%2F%2Fexodus.desync.com%3A6969"],"infoHash":"67a58027105bfb78e21eb385e9a68e90c0ff4739","infoHashBuffer":{"type":"Buffer","data":[103,165,128,39,16,91,251,120,226,30,179,133,233,166,142,144,192,255,71,57]},"announce":[],"urlList":[]}}